<?xml version="1.0" standalone="no"?>
<!DOCTYPE svg PUBLIC "-//W3C//DTD SVG 20010904//EN"
 "http://www.w3.org/TR/2001/REC-SVG-20010904/DTD/svg10.dtd">
<svg version="1.0" xmlns="http://www.w3.org/2000/svg"
 width="928.000000pt" height="928.000000pt" viewBox="0 0 928.000000 928.000000"
 preserveAspectRatio="xMidYMid meet">
<metadata>
Created by potrace 1.14, written by Peter Selinger 2001-2017
</metadata>
<g transform="translate(0.000000,928.000000) scale(0.100000,-0.100000)"
fill="#000000" stroke="none">
<path d="M305 9056 c-54 -17 -95 -39 -126 -67 -79 -71 -85 -78 -130 -144 l-34
-50 1 -1120 1 -1120 33 -80 c18 -44 46 -109 63 -145 17 -36 31 -67 32 -70 4
-14 46 -81 100 -158 55 -79 179 -213 250 -272 90 -74 225 -153 360 -210 55
-23 202 -61 286 -74 39 -6 157 -19 177 -19 6 0 12 -7 13 -16 1 -24 15 -3131
21 -4725 l2 -299 33 -50 c18 -27 33 -52 34 -56 1 -12 127 -114 164 -134 81
-41 365 -37 411 7 7 6 25 20 40 31 40 28 99 91 140 151 l35 51 2 966 c1 532 6
967 10 967 5 0 5 5 2 11 -4 6 -6 44 -6 85 1 41 2 81 1 89 0 8 0 23 0 33 0 9 0
26 0 37 -1 11 -1 25 -1 30 -3 148 14 2811 17 2814 2 3 12 6 22 7 9 1 40 5 67
8 97 13 110 14 150 21 125 20 399 125 413 158 2 4 9 7 15 7 11 0 37 17 136 88
76 55 186 164 246 247 17 22 36 46 42 53 32 34 130 221 158 302 1 3 4 12 7 20
13 34 20 56 25 80 9 43 11 55 13 55 8 0 11 246 15 1160 5 1053 4 1086 -25
1115 -3 3 -18 23 -35 45 -37 51 -116 125 -132 125 -7 0 -13 5 -13 10 0 6 -8
10 -18 10 -10 0 -23 5 -28 10 -6 6 -26 12 -46 14 -19 2 -39 5 -44 8 -5 3 -45
5 -89 6 -61 0 -99 -5 -154 -24 -39 -13 -78 -29 -84 -34 -7 -5 -26 -21 -44 -35
-43 -35 -135 -161 -139 -190 -1 -13 -5 -29 -9 -34 -3 -6 -1 -11 5 -11 8 0 8
-6 0 -20 -8 -14 -8 -20 0 -20 6 0 8 -5 4 -11 -3 -6 -8 -110 -10 -232 -2 -122
-5 -232 -8 -244 -3 -13 0 -25 5 -28 5 -4 6 -11 3 -17 -4 -6 -8 -95 -10 -197
-1 -102 -3 -193 -3 -203 -1 -14 -24 -16 -221 -17 l-220 -1 -1 73 c-1 228 -18
840 -24 902 -6 66 -17 102 -43 140 -34 51 -130 145 -148 145 -8 0 -14 4 -14 8
0 13 -121 44 -195 49 -174 12 -306 -56 -412 -212 l-40 -60 -2 -125 c-2 -69 -3
-198 -4 -287 -1 -90 -6 -163 -10 -163 -5 0 -5 -5 -1 -11 3 -6 5 -52 4 -103 -1
-50 -4 -147 -5 -216 -2 -69 -3 -128 -4 -132 -1 -3 -100 -6 -220 -6 l-219 -1
-2 132 c-1 73 -3 207 -4 299 0 93 -4 168 -7 168 -4 0 -3 18 1 39 4 22 4 45 0
52 -4 6 -4 25 0 40 5 16 6 29 2 29 -4 0 -7 65 -8 144 l0 144 -53 70 c-82 112
-162 169 -266 190 -65 13 -207 13 -250 -2z m2353 -2257 c-4 -47 -14 -86 -33
-126 -50 -103 -196 -225 -287 -239 -18 -3 -79 -7 -136 -8 -56 -2 -105 -6 -109
-9 -3 -4 -12 -2 -19 4 -7 5 -15 6 -18 1 -3 -5 -28 -6 -55 -2 -28 3 -57 2 -66
-2 -9 -6 -15 -5 -15 2 0 6 -5 8 -11 4 -15 -9 -203 -9 -218 0 -6 4 -11 3 -11
-3 0 -6 -11 -6 -29 -1 -19 5 -33 4 -40 -3 -8 -8 -11 -7 -11 3 0 11 -3 11 -12
2 -7 -7 -17 -8 -29 -2 -12 7 -20 6 -24 0 -4 -6 -10 -8 -14 -6 -4 3 -70 7 -147
10 -76 2 -152 10 -169 16 -58 22 -85 35 -85 42 0 5 -6 8 -13 8 -14 0 -137 111
-137 124 0 4 -9 21 -21 37 -11 16 -22 38 -24 49 -2 11 -6 24 -9 29 -8 13 -16
104 -11 121 4 14 101 16 881 16 l876 0 -4 -67z"/>
<path d="M4608 9046 c-80 -38 -153 -101 -217 -189 l-42 -57 -5 -978 c-3 -537
-5 -984 -5 -992 0 -8 0 -94 0 -190 1 -731 -11 -2476 -17 -2481 -7 -6 -135 -47
-168 -54 -37 -7 -200 -68 -246 -91 -27 -13 -49 -24 -50 -23 -4 2 -75 -37 -113
-61 -16 -11 -37 -23 -45 -26 -8 -4 -34 -22 -57 -41 -23 -18 -44 -33 -48 -33
-3 0 -16 -11 -29 -25 -13 -14 -26 -25 -29 -25 -3 0 -38 -32 -77 -71 -71 -72
-173 -204 -217 -282 -78 -138 -169 -359 -188 -454 -3 -13 -8 -35 -11 -50 -6
-30 -9 -52 -19 -158 -10 -97 -13 -644 -4 -677 5 -17 4 -28 -2 -28 -6 0 -7 -5
-3 -11 3 -6 8 -28 11 -48 2 -20 6 -51 9 -68 3 -18 5 -34 4 -35 0 -2 11 -43 25
-93 14 -49 28 -100 31 -113 2 -12 20 -65 38 -117 19 -52 31 -96 28 -99 -3 -3
-1 -6 5 -6 6 0 14 -12 18 -27 6 -28 138 -302 172 -358 10 -16 21 -31 26 -33 4
-2 7 -10 7 -18 0 -8 4 -14 8 -14 5 0 14 -10 19 -23 23 -47 137 -189 230 -285
89 -92 282 -252 303 -252 5 0 15 -6 22 -13 64 -58 356 -184 498 -213 94 -20
511 -19 615 0 55 11 121 30 133 39 6 5 12 7 12 3 0 -3 26 6 58 20 31 14 57 24
57 23 0 -6 188 93 241 126 71 45 165 116 218 165 73 66 176 172 176 180 0 5 6
13 13 17 30 19 143 173 201 277 16 28 34 54 40 58 6 4 8 8 3 8 -4 0 3 17 16
38 24 38 35 62 82 167 46 106 61 144 95 244 28 84 72 231 75 255 2 12 6 31 8
42 22 93 28 206 28 519 0 296 -7 430 -27 497 -3 9 -6 25 -8 35 -2 10 -10 38
-17 63 -7 25 -14 50 -15 55 -11 42 -62 166 -101 245 -25 52 -46 98 -45 103 1
4 -3 7 -8 7 -6 0 -15 11 -20 25 -5 14 -14 31 -20 38 -6 6 -34 44 -62 82 -59
80 -217 238 -281 281 -23 16 -43 32 -45 37 -2 4 -10 7 -17 7 -7 0 -15 4 -17 8
-7 17 -233 135 -301 157 -12 4 -24 8 -27 9 -12 5 -186 60 -190 61 -30 5 -110
30 -111 34 -1 12 -15 2801 -21 4351 l-1 285 -46 65 c-59 85 -113 135 -180 166
-68 32 -81 35 -216 39 -96 2 -116 0 -157 -19z m132 -5756 c0 -3 37 -5 83 -5
45 1 86 -1 91 -4 5 -2 37 -5 71 -6 233 -10 408 -98 525 -265 14 -19 27 -37 30
-40 19 -17 78 -172 97 -255 21 -95 20 -450 -2 -590 -3 -16 -7 -46 -9 -65 -9
-65 -18 -105 -42 -182 -14 -43 -24 -81 -24 -84 1 -4 -3 -10 -9 -14 -6 -3 -13
-16 -15 -27 -3 -12 -12 -36 -22 -55 -10 -18 -17 -36 -16 -40 1 -5 -2 -8 -8 -8
-5 0 -10 -6 -10 -13 0 -17 -116 -200 -156 -246 -133 -155 -254 -239 -386 -267
-134 -28 -349 -12 -415 32 -12 7 -29 14 -38 14 -8 0 -15 4 -15 8 0 5 -19 19
-42 32 -59 32 -203 179 -264 270 -48 72 -144 253 -156 295 -3 11 -17 50 -31
88 -14 37 -23 67 -20 67 3 0 0 6 -6 14 -6 8 -11 18 -10 22 1 5 0 11 -1 14 -3
8 -9 41 -17 90 -9 56 -10 619 -1 676 3 23 11 50 16 60 6 11 10 22 10 27 1 11
71 147 85 163 53 64 134 144 144 144 7 0 13 3 13 8 0 7 34 29 96 62 44 23 142
58 184 66 19 4 51 10 70 13 41 8 200 8 200 1z"/>
<path d="M8630 9047 c-30 -12 -57 -24 -60 -27 -3 -3 -34 -24 -70 -45 -36 -22
-70 -44 -76 -50 -6 -5 -22 -17 -34 -25 -12 -8 -32 -23 -43 -34 -12 -10 -38
-30 -57 -45 -107 -80 -430 -390 -430 -412 0 -5 -4 -9 -8 -9 -4 0 -34 -32 -67
-71 -33 -40 -70 -83 -82 -98 -71 -82 -292 -409 -285 -419 2 -3 0 -8 -6 -11
-24 -16 -189 -336 -281 -546 -12 -27 -26 -59 -31 -70 -26 -56 -80 -201 -80
-212 0 -7 -4 -13 -8 -13 -5 0 -9 -6 -9 -12 0 -7 -26 -89 -57 -181 -30 -92 -58
-178 -60 -190 -2 -12 -9 -34 -15 -50 -6 -15 -13 -38 -15 -50 -3 -12 -25 -103
-51 -202 -25 -99 -47 -191 -49 -205 -3 -14 -7 -36 -10 -50 -4 -14 -9 -40 -12
-59 -3 -18 -8 -43 -10 -55 -5 -21 -19 -96 -29 -151 -13 -74 -37 -223 -40 -255
-7 -67 -15 -125 -19 -140 -3 -8 -7 -46 -11 -85 -3 -38 -8 -83 -11 -100 -2 -16
-6 -57 -9 -90 -3 -33 -8 -85 -11 -115 -12 -136 -26 -366 -28 -462 -1 -32 -4
-58 -8 -58 -4 0 -3 -13 2 -29 4 -16 6 -31 4 -34 -10 -9 -2 -224 10 -277 15
-72 51 -150 68 -150 4 0 8 -5 8 -10 0 -6 26 -36 58 -67 63 -61 130 -98 211
-113 29 -5 57 -13 63 -16 7 -5 8 -2 3 6 -6 9 -4 11 5 5 21 -13 204 -18 792
-19 l568 -1 1 -30 c0 -16 1 -741 2 -1610 2 -1453 3 -1582 19 -1610 9 -16 23
-43 31 -59 45 -85 162 -186 241 -207 42 -12 252 -14 289 -4 24 7 89 37 97 45
3 3 20 17 37 32 18 15 51 48 73 75 55 66 56 66 69 92 10 17 12 966 12 4173 l1
4151 -47 68 c-104 153 -206 205 -401 206 -67 1 -103 -4 -144 -20z m-281 -1769
c5 -478 7 -2611 3 -2625 -3 -10 -106 -13 -444 -13 l-440 0 6 73 c4 39 8 108
11 152 5 87 12 162 21 240 4 28 8 64 9 80 7 64 16 131 21 155 3 14 7 41 9 60
2 19 7 51 10 70 4 19 9 46 11 60 12 77 18 107 29 160 3 14 8 39 11 55 3 17 14
68 24 115 10 47 21 96 24 110 3 14 16 70 31 125 33 130 30 119 55 205 12 41
26 91 31 110 13 45 68 209 79 235 7 18 20 51 25 65 22 63 117 270 204 445 129
260 234 435 261 435 3 0 7 -141 9 -312z"/>
</g>
</svg>
