<svg width="227" height="229" viewBox="0 0 227 229" fill="none" xmlns="http://www.w3.org/2000/svg">
<path d="M192.212 102.972C192.212 102.972 208.825 124.829 166.039 153.433C123.251 182.036 63.6002 191.5 51.73 160.697C39.8597 129.894 50.9424 139.015 96.5502 133.742C142.157 128.47 172.523 80.6299 179.861 85.844C187.195 91.0597 192.212 102.972 192.212 102.972Z" fill="#F9A332"/>
<path d="M88.5646 175.757C75.6888 175.757 64.769 172.693 57.8008 165.914C60.8837 164.445 63.3245 162.954 65.3638 161.71C67.6882 160.291 69.5711 159.141 70.7404 159.141C70.8655 159.141 70.9828 159.154 71.0913 159.182C71.6853 159.333 72.3108 159.982 73.0034 161.166C75.0074 164.591 77.7432 166.464 80.7356 166.464C80.8559 166.464 80.9764 166.461 81.0976 166.455C84.2654 166.3 87.1869 163.979 88.9131 160.247C89.9368 158.034 91.2737 156.689 92.9992 156.137C93.6389 155.932 94.3526 155.83 95.1371 155.83C98.0177 155.83 101.865 157.208 106.614 159.948C106.633 159.958 106.649 159.968 106.667 159.978C108.642 161.161 110.857 161.879 113.474 161.947C113.688 161.954 113.899 161.956 114.108 161.956C121.346 161.956 124.761 158.617 126.825 156.599C127.362 156.073 128.175 155.28 128.449 155.257C128.452 155.257 128.692 155.293 129.237 155.842C126.807 158.713 121.819 164.278 114.198 164.278C110.928 164.278 107.174 163.252 102.93 160.551C101.065 159.364 99.1563 158.869 97.4315 158.869C92.5051 158.869 89.0784 162.914 92.4831 166.453C93.8828 167.908 96.695 168.413 99.9282 168.413C105.154 168.413 111.476 167.092 114.699 166.321C121.168 164.727 127.763 162.609 134.317 160.024C135.515 160.562 136.741 160.846 137.899 160.846C139.045 160.846 140.125 160.568 141.045 159.981C141.83 159.481 143.083 158.351 143.404 156.124C151.211 152.502 158.851 148.239 166.038 143.434C182.734 132.271 190.385 122.139 193.507 113.929C193.523 115.222 193.426 116.628 193.167 118.14C192.746 120.602 191.93 123.095 190.733 125.609C186.572 132.636 179.054 140.711 166.038 149.413C141.705 165.68 111.916 175.757 88.5646 175.757ZM142.043 149.221C141.967 149.048 141.887 148.873 141.804 148.694C141.534 148.118 141.29 147.511 141.071 146.875C141.109 146.875 141.144 146.875 141.182 146.875C149.502 146.875 152.669 142.724 156.505 137.695C157.861 135.917 159.262 134.079 161.06 132.143C164.304 128.648 169.27 128.436 174.073 128.23C177.232 128.095 180.26 127.965 182.563 126.817C176.966 132.424 169.598 126.813 165.189 133.854C160.175 141.863 155.717 147.484 146.246 148.608C144.706 148.791 143.313 148.993 142.043 149.221ZM186.418 120.387C186.441 119.956 186.441 119.503 186.421 119.03C186.253 115.217 186.233 112.615 186.643 111.428C186.865 110.786 187.152 110.617 188.669 109.95C189.667 109.511 190.946 108.948 192.542 107.943C192.772 108.65 192.984 109.449 193.153 110.337C186.895 111.853 189.335 113.394 186.418 120.387Z" fill="#BF6700"/>
<path d="M178.525 87.3494C178.093 87.3494 177.018 87.5998 174.669 89.2629C171.932 91.202 168.372 94.4039 164.248 98.1096C149.143 111.689 126.315 132.212 96.7656 135.627C85.9606 136.877 77.1158 137.32 70.0084 137.678C59.0366 138.229 51.7882 138.593 49.8842 141.557C48.0618 144.391 50.0061 150.984 53.4847 160.01C56.3432 167.429 62.2839 172.628 71.1413 175.465C94.0753 182.809 133.547 172.879 165 151.852C181.546 140.791 191.286 129.133 193.168 118.139C194.643 109.525 190.876 104.336 190.715 104.12C190.623 103.997 190.541 103.856 190.482 103.715C190.417 103.559 185.569 92.2233 178.778 87.3958C178.775 87.3943 178.707 87.3494 178.525 87.3494ZM88.599 181.695C81.7007 181.695 75.45 180.825 70.0036 179.081C60.0075 175.88 53.2706 169.926 49.9793 161.385C45.7681 150.459 44.0033 143.734 46.7282 139.493C49.6795 134.9 56.8335 134.541 69.8211 133.889C76.8751 133.534 85.6531 133.094 96.3376 131.858C124.704 128.579 146.996 108.538 161.748 95.2782C171.613 86.4091 177.045 81.5231 180.944 84.2945C188.185 89.4429 193.133 100.364 193.858 102.033C194.691 103.24 198.446 109.311 196.898 118.639C194.866 130.907 184.832 143.145 167.079 155.014C151.633 165.34 133.524 173.47 116.086 177.908C106.173 180.429 96.9159 181.695 88.599 181.695Z" fill="#6D184E"/>
<path d="M43.8739 141.301C43.8739 141.301 33.0101 139.615 32.035 147.061C31.0601 154.508 43.0383 151.558 42.8991 157.319C42.7598 163.08 42.6205 170.667 54.8779 165.469C67.1345 160.27 70.4771 153.681 74.3775 160.348C78.2771 167.014 84.5451 165.89 87.4697 159.567C90.3951 153.244 96.1446 152.056 107.408 158.552C113.434 162.027 116.704 157.075 120.795 152.123C124.349 147.821 128.523 143.518 135.663 144.743C151.018 147.378 151.681 139.896 159.897 131.044C168.115 122.191 185.387 131.887 184.83 119.099C184.273 106.313 185.595 111.126 193.221 105.541C200.847 99.9552 200.742 86.8876 185.804 88.0478C170.866 89.2064 133.713 143.268 43.8739 141.301Z" fill="#48C75A"/>
<path d="M184.957 108.402C185.521 106.04 188.211 104.602 193.795 100.219C194.781 99.444 195.768 98.1581 196.597 96.8663C196.393 99.5481 194.807 102.392 192.285 104.241C190.191 105.772 188.642 106.454 187.396 107.001C186.369 107.452 185.571 107.876 184.957 108.402Z" fill="#B6E9BD"/>
<path d="M145.797 143.053C150.716 140.363 153.059 134.669 158.514 128.37C165.388 120.432 178.187 125.505 183.146 121.068C182.999 121.945 182.7 122.628 182.239 123.134C180.793 124.723 177.463 124.866 173.938 125.016C168.749 125.238 162.867 125.491 158.734 129.944C156.831 131.994 155.316 133.981 153.979 135.733C151.259 139.299 149.266 141.914 145.797 143.053Z" fill="#B6E9BD"/>
<path d="M48.1361 165.599C47.2714 165.599 46.579 165.426 46.0738 165.077C44.3349 163.881 44.4222 160.265 44.4923 157.358C44.5867 153.472 40.9216 152.322 38.2463 151.483C34.7091 150.373 33.2997 149.681 33.6153 147.272C33.784 145.984 34.3313 145.005 35.2886 144.278C36.5546 143.318 38.3934 142.921 40.068 142.794C44.8142 150.231 52.0672 154.365 60.5422 154.365C61.6164 154.365 62.7116 154.298 63.8219 154.164C74.3214 152.715 84.8808 150.455 95.4206 147.405C95.8313 147.97 96.235 148.53 96.6331 149.085C97.7025 150.57 98.7395 152.011 99.7879 153.358C98.0934 152.861 96.5426 152.614 95.1271 152.614C94.0146 152.614 92.9846 152.767 92.0357 153.072C89.4493 153.9 87.4271 155.856 86.0258 158.887C84.8084 161.518 82.909 163.146 80.9451 163.242C80.8892 163.245 80.8342 163.245 80.7783 163.245C78.9395 163.245 77.162 161.944 75.7504 159.531C74.5866 157.541 73.3536 156.439 71.8705 156.063C71.4952 155.967 71.1199 155.923 70.7414 155.923C68.6868 155.923 66.5302 157.238 63.714 158.958C61.2804 160.443 58.2519 162.293 54.2594 163.986C51.7328 165.058 49.665 165.599 48.1361 165.599ZM141.331 143.685C140.98 143.685 140.617 143.677 140.241 143.658C139.509 139.68 139.635 134.982 140.793 130.073C154.495 123.68 167.28 116.177 178.964 107.661C184.637 103.382 187.947 97.5882 188.7 91.063C188.796 91.0428 188.889 91.024 188.984 91.0052C189.801 95.8904 188.978 102.267 182.461 108.281C169.368 120.364 154.604 123.596 147.918 130.482C143.89 134.631 143.452 139.95 143.741 143.525C143.004 143.63 142.205 143.685 141.331 143.685Z" fill="#539256"/>
<path d="M41.4048 142.744C39.4542 142.744 36.9048 143.052 35.2887 144.279C34.3314 145.006 33.784 145.984 33.6152 147.273C33.2998 149.682 34.709 150.373 38.2464 151.483C40.9216 152.322 44.5867 153.472 44.4922 157.358C44.4222 160.265 44.3348 163.882 46.0738 165.078C47.4735 166.041 50.3039 165.664 54.2593 163.986C58.2517 162.293 61.2802 160.444 63.7139 158.958C67.0486 156.922 69.4595 155.452 71.8704 156.063C73.3536 156.439 74.5864 157.542 75.7502 159.531C77.2043 162.016 79.047 163.324 80.9449 163.243C82.9089 163.147 84.8084 161.519 86.0256 158.887C87.427 155.856 89.449 153.9 92.0355 153.072C95.9634 151.812 101.251 153.149 108.199 157.156C112.386 159.571 114.647 157.141 118.611 152.269C122.451 147.545 127.23 141.665 135.93 143.158C146.883 145.039 149.403 141.733 153.979 135.734C155.316 133.981 156.831 131.994 158.734 129.945C162.867 125.492 168.75 125.239 173.938 125.017C177.463 124.866 180.793 124.723 182.238 123.134C182.99 122.307 183.317 121.01 183.236 119.171C182.844 110.162 183.31 108.797 187.396 107.002C188.641 106.453 190.193 105.772 192.285 104.24C195.737 101.71 197.436 97.3175 196.235 94.0222C195.053 90.7785 191.393 89.224 185.926 89.6513C182.266 89.9346 176.28 94.4086 168.7 100.073C157.926 108.126 143.169 119.156 122.837 128.04C98.8369 138.528 72.2535 143.532 43.8392 142.909C43.7708 142.907 43.7023 142.901 43.6338 142.891C43.1436 142.816 42.3434 142.744 41.4048 142.744ZM48.1204 168.808C46.5915 168.808 45.3161 168.45 44.2775 167.735C41.1058 165.552 41.2166 160.966 41.3056 157.28C41.3355 156.033 40.3314 155.505 37.299 154.554C34.2954 153.612 29.7561 152.187 30.4549 146.851C30.7378 144.69 31.7227 142.957 33.3817 141.702C37.1118 138.88 43.0823 139.568 44.0044 139.695C108.479 141.077 144.984 113.794 166.803 97.4902C175.416 91.0527 181.107 86.7999 185.681 86.4439C195.502 85.6848 198.426 90.7148 199.228 92.9117C200.931 97.5842 198.798 103.443 194.158 106.841C191.783 108.58 189.984 109.371 188.67 109.95C187.153 110.617 186.866 110.786 186.644 111.429C186.234 112.615 186.255 115.216 186.422 119.03C186.54 121.766 185.941 123.82 184.588 125.308C182.25 127.88 178.277 128.05 174.074 128.23C169.271 128.436 164.304 128.648 161.062 132.143C159.262 134.079 157.861 135.917 156.505 137.695C151.887 143.75 148.239 148.532 135.394 146.329C128.52 145.149 124.735 149.805 121.074 154.308C117.448 158.769 113.336 163.824 106.616 159.948C100.571 156.461 95.9901 155.18 93.0001 156.137C91.2745 156.689 89.9377 158.034 88.9141 160.247C87.1877 163.979 84.2662 166.3 81.0984 166.455C77.9653 166.612 75.0893 164.729 73.0041 161.166C72.3118 159.982 71.6863 159.332 71.0921 159.182C69.9701 158.898 67.9377 160.138 65.3647 161.71C62.8421 163.25 59.7027 165.167 55.4954 166.951C52.5739 168.19 50.1292 168.808 48.1204 168.808Z" fill="#6D184E"/>
<path d="M160.202 61.4887C158.265 62.2704 156.6 63.5037 155.233 65.083C146.915 70.8602 128.794 82.4927 105.804 91.6587C82.8976 101.026 61.8251 105.219 51.8528 106.828C49.7833 106.638 47.7351 106.904 45.798 107.686C36.9618 111.254 33.7851 124.195 38.7031 136.589C43.6208 148.983 53.3887 153.807 63.6073 152.57C86.3462 149.434 106.67 142.829 123.292 135.728C140.179 129.297 159.408 119.931 178.011 106.373C186.254 100.156 190.024 89.8651 185.106 77.4697C180.189 65.0758 169.038 57.9219 160.202 61.4887Z" fill="#DB2839"/>
<path d="M60.4791 151.155C51.3581 151.155 44.057 145.756 40.1826 135.992C39.8875 135.248 39.6216 134.499 39.3848 133.749C39.9921 133.537 40.6154 133.326 41.2503 133.124C40.8002 135.197 40.724 137.328 41.8719 139.089C43.0145 140.841 45.079 141.835 48.1832 142.13C48.638 142.173 49.0818 142.193 49.5153 142.193C55.9587 142.193 60.1053 137.637 63.1851 134.253C65.0712 132.182 66.8525 130.224 68.3136 130.224C68.3247 130.224 68.3357 130.224 68.346 130.224C69.1996 130.241 70.2107 130.938 71.3517 132.294C75.3944 137.105 80.682 139.722 86.3189 139.721C86.5723 139.721 86.8271 139.716 87.0821 139.705C87.7635 139.676 88.4378 139.609 89.1036 139.504C90.6661 141.207 92.0699 142.937 93.3761 144.649C83.3745 147.486 73.3629 149.602 63.4172 150.974C62.4186 151.095 61.4391 151.155 60.4791 151.155ZM67.8046 134.198C67.5567 134.198 67.338 134.33 67.135 134.627C66.3301 135.804 64.6108 137.45 62.8011 139.03C61.6098 140.069 61.9654 141.995 63.4314 142.576C66.0523 143.615 68.8463 144.117 71.7128 144.117C72.7286 144.117 73.7539 144.054 74.7831 143.929C74.8144 143.925 74.846 143.921 74.8775 143.916C76.8665 143.641 77.3324 140.954 75.5643 139.995C71.0582 137.551 69.0564 134.198 67.8046 134.198ZM142 125.949C143.913 120.49 147.119 114.952 151.849 110.007C152.577 110.068 153.315 110.104 154.056 110.104C154.702 110.104 155.349 110.076 155.989 110.011C154.329 111.932 152.88 113.802 151.661 115.488C150.602 116.952 151.756 118.803 153.298 118.803C153.589 118.803 153.896 118.736 154.204 118.587C158.618 116.457 163.102 114.127 167.619 111.58C159.532 116.835 150.973 121.635 142 125.949ZM166.341 100.339C166.436 100.006 166.517 99.6778 166.588 99.3586C174.127 95.3698 180.414 93.142 185.406 91.838C185.339 92.2353 185.26 92.6283 185.17 93.0186C178.061 93.4528 171.717 96.4284 166.341 100.339Z" fill="#A92142"/>
<path d="M50.5773 108.377C49.1146 108.377 47.7101 108.645 46.3888 109.179C42.6042 110.708 39.8519 114.272 38.6386 119.214C37.3779 124.349 37.9256 130.307 40.1815 135.991C44.4635 146.782 52.9307 152.242 63.4161 150.974C83.1061 148.257 103.05 142.628 122.669 134.247C122.688 134.238 122.706 134.23 122.727 134.223C142.66 126.634 160.945 116.824 177.076 105.07C185.512 98.7064 187.906 88.8586 183.624 78.0674C179.042 66.5162 168.798 59.7476 160.793 62.9827L160.201 61.4889L160.793 62.9827C159.134 63.6509 157.668 64.7137 156.431 66.1405C156.343 66.241 156.245 66.3298 156.135 66.407C147.408 72.4679 129.341 84.0032 106.39 93.1536C83.531 102.502 62.5648 106.729 52.103 108.416C51.9716 108.436 51.8378 108.441 51.7064 108.429C51.3263 108.394 50.9502 108.377 50.5773 108.377ZM60.5419 154.365C50.1303 154.365 41.5625 148.125 37.2215 137.187C34.7201 130.882 34.1242 124.224 35.5439 118.441C37.0105 112.466 40.4411 108.116 45.204 106.193C47.2725 105.357 49.4882 105.028 51.7913 105.209C62.1825 103.523 82.7647 99.3441 105.205 90.1675C127.735 81.186 145.492 69.8822 154.167 63.8693C155.71 62.1339 157.54 60.8323 159.608 59.9951C169.245 56.1049 181.348 63.6742 186.584 76.8721C191.372 88.9402 188.524 100.449 178.964 107.662C162.594 119.592 144.069 129.532 123.881 137.221C104.014 145.706 83.8072 151.407 63.8214 154.164C62.7111 154.298 61.6159 154.365 60.5419 154.365Z" fill="#6D184E"/>
<path d="M41.6448 121.208C41.6448 121.208 30.9199 125.564 28.2737 133.011C26.7015 137.434 31.2237 134.967 38.1032 132.499C42.8054 130.812 48.6083 129.125 54.3192 129.639C59.5336 130.107 61.533 128.53 62.9847 126.953C65.449 124.275 66.3342 121.595 78.694 128.936C98.3334 140.599 100.144 159.989 113.515 160.34C118.87 160.481 121.946 158.739 124.033 156.999C127.156 154.392 128.059 151.786 131.064 155.493C136.079 161.675 145.584 160.551 140.361 149.38C135.138 138.209 138.447 113.62 162.125 99.9906C185.803 86.3614 198.477 89.3116 199.592 87.3453C200.707 85.3775 195.413 75.26 178.56 74.98C161.707 74.6984 119.365 118.117 41.6448 121.208Z" fill="#FCAF15"/>
<path d="M114.08 158.739C113.908 158.739 113.735 158.737 113.557 158.732C107.401 158.57 103.967 153.8 99.2131 147.195C97.2854 144.517 95.1533 141.554 92.5644 138.587C95.9016 137.326 98.8457 135.054 101.024 131.978C103.084 129.069 104.868 127.957 107.073 127.957C109.209 127.957 111.74 129.003 115.296 130.473C117.543 131.4 120.09 132.453 123.055 133.417C124.986 134.044 126.881 134.352 128.69 134.352C131.906 134.352 134.854 133.377 137.254 131.477C136.928 132.096 136.638 132.719 136.38 133.342C133.495 134.9 130.659 135.479 127.931 135.479C124 135.479 120.296 134.276 117.008 133.072C113.719 131.868 110.847 130.665 108.574 130.665C107.308 130.665 106.229 131.038 105.368 131.992C102.296 135.395 99.2645 138.793 97.4127 139.841C102.913 147.394 106.273 153.748 113.849 153.946C114.034 153.951 114.215 153.954 114.395 153.954C119.508 153.954 122.407 152.013 124.362 150.072C126.315 148.131 127.324 146.191 128.655 146.191C129.324 146.191 130.074 146.68 131.065 147.902C132.854 150.107 135.212 151.381 137.271 151.6C138.183 154.358 138.029 156.327 137.242 157.573C135.686 157.339 133.788 156.31 132.3 154.475C131.422 153.392 130.212 152.138 128.633 152.046C128.573 152.043 128.511 152.041 128.451 152.041C126.913 152.041 125.792 153.131 124.609 154.289C122.674 156.18 120.043 158.739 114.08 158.739ZM29.7012 133.771C29.7226 133.705 29.747 133.631 29.775 133.552C30.7402 130.837 32.9699 128.54 35.281 126.768C36.7304 126.738 38.2317 126.623 39.718 126.509C40.6378 126.439 41.5065 126.372 42.3587 126.326C42.4428 126.321 42.5184 126.319 42.5861 126.319C42.8048 126.319 42.9432 126.34 43.022 126.359C43.0998 126.909 42.6678 128.332 42.3122 129.447C39.3922 130.267 36.6934 131.292 34.3691 132.176C32.7383 132.795 30.796 133.533 29.7012 133.771Z" fill="#D18126"/>
<path d="M54.5137 129.653C63.0482 130.346 62.7942 125.459 65.9993 124.388C59.9317 123.015 61.5498 128.95 54.5137 129.653Z" fill="#F8CE36"/>
<path d="M28.1133 135.052C29.4684 137.165 39.7768 130.205 50.6805 129.589C41.7605 129.042 32.7296 133.647 28.1133 135.052Z" fill="#F8CE36"/>
<path d="M137.899 151.636C137.693 151.636 137.483 151.624 137.269 151.602C137.041 150.911 136.745 150.171 136.375 149.38C134.549 145.475 133.89 139.376 136.38 133.343C136.594 133.226 136.81 133.104 137.025 132.977C136.14 139.333 136.772 145.471 138.921 150.066C139.131 150.516 139.318 150.953 139.478 151.375C138.998 151.549 138.464 151.636 137.899 151.636Z" fill="#FED78A"/>
<path d="M137.907 157.625C137.694 157.625 137.471 157.608 137.241 157.573C138.028 156.328 138.183 154.358 137.27 151.601C137.482 151.624 137.693 151.637 137.899 151.637C138.463 151.637 138.998 151.55 139.479 151.374C140.596 154.283 140.564 156.484 139.344 157.263C138.964 157.504 138.47 157.625 137.907 157.625ZM136.379 133.342C136.636 132.72 136.927 132.096 137.253 131.477C137.256 131.474 137.259 131.472 137.263 131.469C137.174 131.973 137.095 132.475 137.025 132.978C136.81 133.104 136.594 133.226 136.379 133.342Z" fill="#E8C093"/>
<path d="M142.742 116.668C142.584 115.149 142.265 113.592 141.779 112.018C141.068 109.712 141.481 109.195 141.499 109.173C141.685 108.957 142.181 108.875 142.836 108.875C144.089 108.875 145.926 109.173 147.301 109.396C147.499 109.428 147.7 109.46 147.906 109.494C145.811 111.894 144.116 114.32 142.742 116.668Z" fill="#D18126"/>
<path d="M67.297 122.585C69.7771 122.585 73.4068 123.929 79.504 127.55C89.2318 133.327 94.7664 141.017 99.2136 147.196C103.967 153.8 107.401 158.57 113.557 158.733C119.892 158.886 122.619 156.235 124.609 154.289C125.837 153.087 127.001 151.956 128.634 152.046C130.212 152.138 131.423 153.393 132.3 154.474C134.593 157.301 137.853 158.212 139.344 157.262C140.742 156.371 140.58 153.614 138.921 150.067C135.886 143.574 135.877 134.003 138.898 125.087C141.506 117.393 147.516 106.548 161.336 98.5931C178.39 88.7781 189.943 87.4064 195.495 86.7479C196.455 86.6338 197.517 86.5076 198.1 86.3738C197.981 85.8248 197.56 84.7253 196.356 83.317C194.678 81.3552 189.583 76.7716 178.534 76.5876C173.407 76.4873 165.3 81.0343 154.069 87.309C130.286 100.591 94.3714 120.652 42.001 122.803C40.4523 123.484 31.9384 127.466 29.7753 133.553C29.7472 133.632 29.7228 133.705 29.7016 133.771C30.7963 133.534 32.7385 132.796 34.3695 132.176C39.7081 130.147 47.0226 127.371 54.4621 128.036C59.5145 128.493 60.8717 126.946 62.3077 125.31C63.6839 123.741 64.997 122.585 67.297 122.585ZM114.109 161.956C113.901 161.956 113.688 161.953 113.474 161.947C105.745 161.745 101.523 155.878 96.6336 149.085C92.1375 142.839 87.042 135.759 77.8871 130.322C72.9071 127.365 69.519 125.884 67.5299 125.795C66.2442 125.745 65.7595 126.227 64.6942 127.441C63.0663 129.297 60.8347 131.835 54.1796 131.24C47.4623 130.635 40.5445 133.266 35.493 135.185C31.0422 136.877 28.5898 137.809 27.0953 136.326C25.8448 135.084 26.5443 133.115 26.7743 132.468C29.6294 124.434 40.5862 119.905 41.0504 119.717C41.2204 119.648 41.4005 119.609 41.5831 119.601C93.354 117.542 128.962 97.6548 152.524 84.4941C164.189 77.9806 172.618 73.2769 178.587 73.3727C190.543 73.5719 197.636 78.662 200.286 83.3596C200.919 84.4834 201.852 86.5988 200.978 88.1424C200.253 89.4214 198.787 89.5947 195.867 89.9415C190.523 90.5756 179.406 91.8957 162.917 101.388C140.983 114.012 136.512 137.373 141.805 148.694C145.317 156.207 142.445 159.09 141.046 159.981C137.942 161.96 133.016 160.436 129.832 156.511C128.864 155.318 128.454 155.258 128.45 155.257C128.177 155.279 127.364 156.073 126.828 156.599C124.762 158.616 121.348 161.956 114.109 161.956Z" fill="#6D184E"/>
<path d="M125.894 141.951C125.894 141.951 121.033 151.07 113.848 149.959C108.396 149.116 117.505 150.189 119.871 143.532C122.604 135.837 127.301 139.843 125.894 141.951Z" fill="#F8CE36"/>
<path d="M48.3322 104.698C48.3322 104.698 29.111 105.752 26.8128 116.501C24.5147 127.25 34.5431 125.142 42.2735 124.721C50.0035 124.299 34.9607 139.264 48.3322 140.528C53.922 141.057 57.6492 137.829 60.6903 134.6C64.9235 130.107 67.8254 125.613 72.5677 131.254C80.7154 140.949 93.4598 139.896 99.7278 131.044C105.996 122.192 111.218 127.883 123.545 131.887C135.872 135.892 144.229 125.353 140.26 112.496C138.288 106.113 142.549 107.004 148.079 107.893C153.69 108.795 160.608 109.697 163.658 103.012C169.716 89.7333 156.764 87.4155 172.224 84.2543C187.685 81.0915 194.37 80.0388 191.864 71.5032C189.357 62.9661 183.506 56.6436 163.867 65.0745C144.229 73.504 126.47 110.389 48.3322 104.698Z" fill="#48C75A"/>
<path d="M45.2442 130.752C46.0728 128.175 46.7769 125.951 45.5589 124.354C44.9263 123.523 43.9215 123.105 42.5689 123.105C42.4446 123.105 42.3171 123.107 42.1865 123.114C41.2997 123.163 40.3736 123.233 39.4774 123.303C37.862 123.426 36.1632 123.556 34.5888 123.556C34.4071 123.556 34.2267 123.555 34.0487 123.552C35.1238 119.674 37.1232 115.891 33.5507 115.891C33.452 115.891 33.3491 115.892 33.2417 115.9C31.7212 115.982 30.1122 116.129 28.5254 116.232C29.3476 113.464 31.5782 111.46 34.2637 110.008C34.571 111.589 34.9272 113.151 35.3308 114.695C41.7136 117.954 48.5961 120.172 55.843 121.413C52.9442 123.924 49.9251 128.679 45.2442 130.752ZM77.3119 129.291C75.5108 129.291 73.6861 128.989 71.9016 128.368C70.9487 127.632 69.9927 127.199 69.0177 127.057C67.0617 125.949 65.2025 124.415 63.5358 122.432C63.5131 122.405 63.4902 122.378 63.4674 122.352C65.7422 122.526 68.0468 122.613 70.3752 122.613C77.485 122.613 84.8271 121.808 92.2973 120.249C91.7686 120.805 91.2359 121.46 90.6961 122.223C87.4558 126.8 82.4846 129.291 77.3119 129.291ZM119.657 123.927C118.046 123.927 116.323 123.652 114.514 123.065C108.841 121.222 104.672 119.022 101.214 118.046C106.818 116.453 112.465 114.455 118.113 112.074C118.135 112.064 118.159 112.054 118.183 112.044C118.189 112.042 118.196 112.039 118.203 112.036C118.221 112.029 118.235 112.023 118.253 112.015C118.26 112.012 118.267 112.009 118.276 112.006C118.292 111.999 118.311 111.991 118.327 111.984C118.333 111.981 118.339 111.979 118.344 111.976C118.367 111.967 118.391 111.957 118.413 111.948L118.414 111.947C118.44 111.937 118.465 111.926 118.489 111.916C118.49 111.914 118.492 111.914 118.493 111.914C118.515 111.904 118.537 111.894 118.56 111.884C118.563 111.883 118.569 111.882 118.573 111.879C118.593 111.87 118.614 111.862 118.635 111.853C118.638 111.852 118.642 111.851 118.645 111.849C118.667 111.839 118.691 111.829 118.715 111.819L118.716 111.818C118.767 111.797 118.814 111.776 118.865 111.754C118.866 111.754 118.869 111.753 118.87 111.753C118.893 111.743 118.915 111.733 118.938 111.723C118.941 111.722 118.942 111.722 118.945 111.72C119.044 111.678 119.143 111.637 119.241 111.593L119.244 111.592C119.468 111.495 119.691 111.399 119.914 111.301L119.918 111.3C120.017 111.258 120.115 111.214 120.214 111.171L120.217 111.168C120.315 111.126 120.412 111.083 120.512 111.041C120.515 111.038 120.515 111.038 120.517 111.037C120.616 110.993 120.711 110.952 120.809 110.908C120.812 110.907 120.813 110.907 120.816 110.905C120.837 110.895 120.861 110.885 120.882 110.875C120.886 110.874 120.886 110.874 120.889 110.873C120.961 110.841 121.035 110.807 121.107 110.776C121.109 110.775 121.112 110.774 121.115 110.771C121.136 110.762 121.157 110.754 121.177 110.744C121.18 110.742 121.185 110.741 121.188 110.738C121.213 110.728 121.233 110.718 121.257 110.708H121.258C121.306 110.686 121.355 110.665 121.403 110.643C121.407 110.64 121.411 110.639 121.415 110.638C121.433 110.629 121.455 110.619 121.473 110.612C121.478 110.609 121.483 110.608 121.487 110.605C121.505 110.597 121.527 110.588 121.546 110.58C121.55 110.577 121.554 110.575 121.56 110.573C121.606 110.553 121.651 110.532 121.697 110.51C121.703 110.507 121.711 110.503 121.718 110.502C121.734 110.495 121.751 110.486 121.767 110.479C121.774 110.475 121.781 110.473 121.788 110.469C121.805 110.462 121.819 110.455 121.836 110.448C121.845 110.444 121.852 110.441 121.859 110.438C121.877 110.43 121.896 110.421 121.915 110.413C121.917 110.411 121.923 110.408 121.927 110.407C121.95 110.397 121.974 110.386 121.996 110.376C122.002 110.373 122.007 110.37 122.013 110.369C122.028 110.36 122.047 110.353 122.063 110.346C122.07 110.342 122.08 110.338 122.089 110.333C122.103 110.328 122.115 110.321 122.129 110.315C122.141 110.311 122.149 110.306 122.16 110.301C122.173 110.295 122.184 110.291 122.197 110.285C122.206 110.28 122.218 110.275 122.227 110.271C122.239 110.265 122.25 110.26 122.261 110.256C122.282 110.246 122.306 110.234 122.327 110.226C122.336 110.222 122.347 110.216 122.355 110.212C122.369 110.206 122.38 110.2 122.394 110.195C122.403 110.19 122.411 110.186 122.42 110.182C122.434 110.176 122.448 110.169 122.46 110.164C122.469 110.161 122.477 110.156 122.484 110.154C122.5 110.145 122.514 110.139 122.529 110.132C122.531 110.132 122.532 110.131 122.533 110.131C122.589 110.104 122.647 110.079 122.704 110.052C122.706 110.052 122.709 110.05 122.711 110.049C122.73 110.04 122.749 110.032 122.768 110.023L122.769 110.022C125.839 108.61 128.825 107.112 131.721 105.534C133.967 115.673 128.494 123.927 119.657 123.927ZM145.107 99.6936C144.007 99.6936 142.891 99.603 141.791 99.47C147.056 95.9701 151.922 92.1702 156.322 88.0943C156.179 89.8251 155.703 91.8348 154.628 94.1897C152.629 98.5699 148.971 99.6936 145.107 99.6936ZM168.594 74.324C170.986 71.0066 173.103 67.5619 174.918 64.0012C174.8 63.745 174.681 63.4889 174.562 63.2341C176.279 62.8874 177.856 62.7133 179.29 62.7133C180.646 62.7133 181.875 62.869 182.971 63.1818C184.802 70.2268 179.921 71.9435 168.594 74.324Z" fill="#539256"/>
<path d="M86.3202 136.505C86.2697 136.505 86.2183 136.505 86.166 136.505C88.9912 135.254 91.5226 133.222 93.4662 130.477C96.0462 126.833 98.4603 125.517 101.213 125.517C101.814 125.517 102.433 125.58 103.073 125.696C101.513 126.515 99.982 127.919 98.4297 130.109C95.6937 133.975 91.5091 136.301 86.9494 136.492C86.7394 136.501 86.5302 136.505 86.3202 136.505Z" fill="#A4E3AD"/>
<path d="M129.668 131.112C135.877 128.223 138.262 120.317 136.414 110.822C135.681 107.057 137.306 106.12 140.066 106.12C140.166 106.12 140.267 106.12 140.369 106.123C139.88 106.34 139.451 106.648 139.089 107.068C137.653 108.739 138.199 111.239 138.735 112.974C140.573 118.924 139.589 124.742 136.168 128.159C134.405 129.921 132.186 130.915 129.668 131.112ZM154.173 106.886C153.828 106.886 153.473 106.877 153.113 106.86C156.394 106.369 159.382 104.782 161.211 100.772C167.632 86.7008 153.906 84.2438 170.289 80.8932C181.538 78.5931 188.4 77.345 190.737 73.8592C190.901 75.3049 190.589 76.0794 190.296 76.5676C188.695 79.2557 182.614 80.4951 173.41 82.3709L171.905 82.6775C166.655 83.7512 164.312 84.7785 163.262 86.4669C162.294 88.0202 162.707 89.6533 163.142 91.3839C163.788 93.9397 164.59 97.1203 162.209 102.339C160.609 105.846 157.794 106.886 154.173 106.886Z" fill="#A4E3AD"/>
<path d="M42.5685 123.105C43.9211 123.105 44.9259 123.523 45.5585 124.355C46.7851 125.962 46.0628 128.208 45.2265 130.808C44.4617 133.185 43.5946 135.88 44.5349 137.322C45.1037 138.194 46.4304 138.733 48.4801 138.927C54.1162 139.459 57.6868 135.538 60.8365 132.078C63.2364 129.441 65.4963 126.936 68.4091 127.009C70.2425 127.045 72.0003 128.094 73.7825 130.215C77.3578 134.468 82.034 136.7 86.9486 136.492C91.5084 136.3 95.6927 133.975 98.4293 130.11C103.953 122.309 109.217 124.486 116.504 127.497C118.699 128.403 121.184 129.43 124.034 130.357C128.869 131.927 133.179 131.147 136.17 128.159C139.59 124.742 140.573 118.924 138.737 112.974C138.2 111.239 137.654 108.74 139.092 107.067C140.795 105.085 144.044 105.611 147.807 106.221C154.471 107.3 159.764 107.701 162.209 102.339C164.592 97.1204 163.788 93.9385 163.144 91.383C162.707 89.6542 162.295 88.0198 163.262 86.4664C164.313 84.7789 166.656 83.7517 171.907 82.6773L173.411 82.3707C182.615 80.4946 188.696 79.2566 190.298 76.5684C190.698 75.8979 191.137 74.6923 190.335 71.9599C189.071 67.6579 187.2 65.0434 184.443 63.7332C180.228 61.7303 173.514 62.6794 164.491 66.554C159.838 68.551 155.141 72.3386 149.704 76.7261C141.214 83.5704 130.65 92.0919 114.801 98.3142C96.2695 105.59 74.5229 108.205 48.3251 106.31C46.9205 106.408 30.3086 107.773 28.3699 116.84C27.8456 119.294 28.013 121.039 28.8681 122.028C30.5599 123.986 35.2973 123.624 39.477 123.304C40.3733 123.235 41.2994 123.164 42.1861 123.115C42.3168 123.108 42.4441 123.105 42.5685 123.105ZM49.5147 142.193C49.0812 142.193 48.6374 142.173 48.1826 142.13C45.0785 141.835 43.0139 140.841 41.8713 139.089C40.09 136.357 41.2561 132.73 42.194 129.815C42.5622 128.67 43.1083 126.972 43.0218 126.36C42.9179 126.335 42.7141 126.306 42.3584 126.327C41.5062 126.373 40.6376 126.439 39.7178 126.51C34.5511 126.905 29.2072 127.314 26.4653 124.141C24.8915 122.321 24.4951 119.709 25.2538 116.162C27.7793 104.349 47.4107 103.138 48.2447 103.092C48.3116 103.089 48.3793 103.089 48.4462 103.095C106.649 107.331 130.382 88.1893 147.712 74.2133C153.333 69.6799 158.187 65.7641 163.243 63.5947C173.278 59.2868 180.658 58.3804 185.801 60.8239C189.439 62.5542 191.851 65.8009 193.391 71.0461C194.262 74.0114 194.143 76.3592 193.03 78.2265C190.703 82.1276 184.433 83.4053 174.043 85.5232L172.541 85.8297C168.649 86.6256 166.437 87.4155 165.962 88.1775C165.733 88.5444 165.917 89.3329 166.234 90.5901C166.921 93.3136 167.959 97.4299 165.106 103.685C161.452 111.689 152.937 110.309 147.302 109.396C145.207 109.058 142.041 108.542 141.501 109.173C141.482 109.194 141.068 109.713 141.78 112.018C144.006 119.226 142.747 126.114 138.412 130.445C134.592 134.264 128.994 135.346 123.055 133.417C120.089 132.454 117.543 131.401 115.296 130.473C108.07 127.486 105.08 126.25 101.024 131.978C97.7117 136.657 92.6296 139.472 87.0816 139.705C81.1598 139.952 75.5756 137.321 71.351 132.294C70.2102 130.938 69.1991 130.242 68.3454 130.224C68.3351 130.224 68.3242 130.224 68.3131 130.224C66.852 130.224 65.0706 132.182 63.1845 134.253C60.1048 137.637 55.9582 142.193 49.5147 142.193Z" fill="#6D184E"/>
<path d="M118.114 112.075C143.89 101.207 164.44 84.567 174.918 64.0009C163.274 38.6056 137.987 20.8795 108.54 20.4005C67.6307 19.7363 33.596 52.8897 32.8826 94.1587C32.7599 101.27 33.6214 108.155 35.3309 114.695C58.5175 126.536 88.3185 124.634 118.114 112.075Z" fill="#F9A332"/>
<path d="M118.679 21.2598H118.678H118.679ZM118.602 21.2489C118.601 21.2489 118.601 21.2474 118.599 21.2474C118.601 21.2474 118.601 21.2489 118.602 21.2489ZM118.562 21.2427C118.561 21.2427 118.562 21.2427 118.561 21.2412L118.562 21.2427ZM118.525 21.2365C118.524 21.2365 118.522 21.2365 118.519 21.235C118.522 21.2365 118.524 21.2365 118.525 21.2365ZM118.484 21.2303H118.482H118.484ZM118.367 21.2132C118.365 21.2117 118.365 21.2117 118.364 21.2117C118.365 21.2117 118.365 21.2117 118.367 21.2132ZM118.175 21.1838C118.173 21.1838 118.172 21.1838 118.17 21.1838C118.172 21.1838 118.173 21.1838 118.175 21.1838ZM118.141 21.1791C118.136 21.1791 118.133 21.1776 118.13 21.1776C118.133 21.1776 118.136 21.1791 118.141 21.1791ZM118.102 21.1729C118.098 21.1729 118.093 21.1714 118.09 21.1714C118.095 21.1729 118.096 21.1729 118.102 21.1729ZM118.067 21.1682C118.059 21.1667 118.055 21.1667 118.047 21.1652C118.053 21.1667 118.061 21.1667 118.067 21.1682ZM118.029 21.1621C118.021 21.1621 118.015 21.1605 118.007 21.1589C118.015 21.1605 118.019 21.1605 118.029 21.1621ZM117.987 21.1558C117.979 21.1558 117.975 21.1543 117.967 21.1543C117.973 21.1543 117.979 21.1558 117.987 21.1558ZM117.946 21.1512C117.938 21.1496 117.935 21.1496 117.927 21.1481C117.933 21.1481 117.938 21.1496 117.946 21.1512ZM117.907 21.145C117.899 21.1434 117.892 21.1434 117.884 21.1419C117.892 21.1434 117.898 21.1434 117.907 21.145ZM117.866 21.1388C117.859 21.1388 117.852 21.1372 117.844 21.1357C117.853 21.1372 117.858 21.1388 117.866 21.1388ZM117.826 21.1326C117.82 21.1326 117.812 21.131 117.806 21.131C117.812 21.131 117.82 21.1326 117.826 21.1326ZM117.784 21.1279C117.776 21.1264 117.772 21.1264 117.766 21.1248C117.772 21.1264 117.778 21.1264 117.784 21.1279ZM117.744 21.1217C117.736 21.1202 117.727 21.1202 117.72 21.1186C117.729 21.1202 117.735 21.1202 117.744 21.1217ZM117.704 21.1171C117.693 21.114 117.684 21.114 117.672 21.1109C117.684 21.114 117.693 21.114 117.704 21.1171ZM117.664 21.1109C117.65 21.1093 117.64 21.1078 117.626 21.1046C117.638 21.1062 117.652 21.1093 117.664 21.1109ZM117.617 21.1046C117.604 21.1015 117.595 21.1015 117.583 21.0984C117.593 21.1 117.606 21.1031 117.617 21.1046ZM117.572 21.0984C117.563 21.0969 117.553 21.0953 117.541 21.0938C117.553 21.0953 117.561 21.0969 117.572 21.0984ZM117.529 21.0922C117.521 21.0907 117.51 21.0891 117.501 21.0876C117.512 21.0891 117.52 21.0907 117.529 21.0922ZM117.486 21.086C117.477 21.0845 117.47 21.0829 117.461 21.0829C117.469 21.0829 117.478 21.0845 117.486 21.086ZM117.446 21.0798C117.437 21.0783 117.429 21.0783 117.42 21.0767C117.429 21.0783 117.437 21.0783 117.446 21.0798ZM117.406 21.0752C117.397 21.0736 117.386 21.0721 117.378 21.0705C117.386 21.0721 117.398 21.0736 117.406 21.0752ZM117.367 21.069C117.357 21.0674 117.347 21.0674 117.337 21.0659C117.347 21.0674 117.357 21.0674 117.367 21.069ZM117.324 21.0643C117.315 21.0628 117.306 21.0612 117.295 21.0597C117.306 21.0612 117.315 21.0628 117.324 21.0643ZM117.284 21.0581C117.274 21.0566 117.264 21.055 117.255 21.0535C117.264 21.055 117.274 21.0566 117.284 21.0581ZM117.243 21.0519C117.232 21.0519 117.221 21.0504 117.212 21.0488C117.221 21.0504 117.234 21.0519 117.243 21.0519ZM117.203 21.0472C117.192 21.0457 117.183 21.0441 117.169 21.0426C117.181 21.0441 117.192 21.0457 117.203 21.0472ZM117.161 21.0411C117.148 21.0395 117.137 21.0379 117.123 21.0364C117.135 21.0379 117.149 21.0395 117.161 21.0411ZM117.123 21.0364C117.109 21.0348 117.095 21.0333 117.081 21.0317C117.095 21.0333 117.108 21.0348 117.123 21.0364ZM117.081 21.0317C116.997 21.0193 116.915 21.0085 116.831 20.9992C116.914 21.0085 116.997 21.0193 117.081 21.0317ZM116.828 20.9976C116.814 20.9961 116.803 20.9945 116.789 20.993C116.8 20.9945 116.815 20.9961 116.828 20.9976ZM116.786 20.993C116.772 20.9914 116.76 20.9899 116.746 20.9883C116.76 20.9899 116.774 20.9914 116.786 20.993ZM116.746 20.9868C116.717 20.9837 116.691 20.9805 116.663 20.9774C116.691 20.9805 116.717 20.9837 116.746 20.9868ZM116.66 20.9774C116.648 20.9743 116.635 20.9728 116.62 20.9712C116.635 20.9728 116.646 20.9743 116.66 20.9774ZM116.62 20.9712C116.606 20.9697 116.594 20.9681 116.58 20.9666C116.592 20.9681 116.608 20.9697 116.62 20.9712ZM116.579 20.9666C114.301 20.6811 111.994 20.4996 109.66 20.4267C111.994 20.4996 114.303 20.6811 116.579 20.9666ZM109.658 20.4267C109.644 20.4267 109.631 20.4267 109.617 20.4267C109.63 20.4267 109.645 20.4267 109.658 20.4267ZM109.615 20.4267C109.601 20.4252 109.588 20.4252 109.574 20.4252C109.588 20.4252 109.602 20.4252 109.615 20.4267ZM109.573 20.4252C109.559 20.4236 109.547 20.4236 109.533 20.4236C109.544 20.4236 109.561 20.4236 109.573 20.4252ZM109.528 20.4236C109.517 20.4236 109.502 20.4221 109.491 20.4221C109.503 20.4221 109.516 20.4236 109.528 20.4236ZM109.485 20.4221C109.474 20.4221 109.459 20.4221 109.448 20.4205C109.459 20.4221 109.473 20.4221 109.485 20.4221ZM109.442 20.4205C109.428 20.4205 109.418 20.4205 109.403 20.4205C109.417 20.4205 109.429 20.4205 109.442 20.4205ZM109.4 20.4205C109.388 20.419 109.374 20.419 109.361 20.419C109.373 20.419 109.389 20.419 109.4 20.4205ZM109.357 20.419C109.271 20.4159 109.187 20.4143 109.101 20.4128C109.187 20.4143 109.271 20.4159 109.357 20.419ZM109.096 20.4112C109.083 20.4112 109.07 20.4112 109.057 20.4112C109.071 20.4112 109.083 20.4112 109.096 20.4112ZM109.055 20.4112C109.04 20.4112 109.031 20.4097 109.016 20.4097C109.03 20.4097 109.042 20.4112 109.055 20.4112ZM109.008 20.4097C108.997 20.4097 108.985 20.4097 108.974 20.4097C108.986 20.4097 108.996 20.4097 109.008 20.4097ZM108.964 20.4097C108.954 20.4081 108.943 20.4081 108.932 20.4081C108.942 20.4081 108.954 20.4081 108.964 20.4097ZM108.921 20.4081C108.911 20.4081 108.901 20.4081 108.891 20.4081C108.9 20.4081 108.911 20.4081 108.921 20.4081ZM108.878 20.4066C108.868 20.4066 108.859 20.4066 108.851 20.4066C108.861 20.4066 108.868 20.4066 108.878 20.4066ZM108.834 20.4066C108.825 20.4066 108.817 20.4066 108.808 20.405C108.817 20.4066 108.826 20.4066 108.834 20.4066ZM108.792 20.405C108.784 20.405 108.774 20.405 108.765 20.405C108.773 20.405 108.784 20.405 108.792 20.405ZM108.751 20.405C108.742 20.405 108.732 20.4035 108.723 20.4035C108.733 20.4035 108.74 20.405 108.751 20.405ZM108.708 20.4035C108.699 20.4035 108.691 20.4035 108.683 20.4035C108.691 20.4035 108.699 20.4035 108.708 20.4035ZM108.666 20.4035C108.657 20.4035 108.648 20.4035 108.64 20.4019C108.647 20.4035 108.657 20.4035 108.666 20.4035ZM108.624 20.4019C108.613 20.4019 108.602 20.4019 108.592 20.4019C108.603 20.4019 108.612 20.4019 108.624 20.4019ZM108.582 20.4019C108.568 20.4019 108.555 20.4019 108.54 20.4003C108.553 20.4019 108.569 20.4019 108.582 20.4019ZM108.54 20.4003C108.503 20.4003 108.464 20.4004 108.427 20.3988C108.465 20.4004 108.502 20.4003 108.54 20.4003ZM106.76 20.3926C106.857 20.3926 106.955 20.391 107.053 20.391C107.063 20.391 107.075 20.391 107.085 20.391C106.976 20.3926 106.869 20.3926 106.76 20.3926Z" fill="#FFF6AF"/>
<path d="M40.3574 62.7522C52.3756 37.9236 77.5772 20.7321 106.48 20.4001C106.573 20.397 106.665 20.3954 106.759 20.3939C106.868 20.3939 106.975 20.3923 107.085 20.3923C107.092 20.3923 107.099 20.3923 107.107 20.3923C107.187 20.3923 107.266 20.3923 107.347 20.3923C107.705 20.3923 108.066 20.3954 108.426 20.4001C108.463 20.4001 108.502 20.4016 108.539 20.4016C108.554 20.4016 108.567 20.4016 108.581 20.4032C108.584 20.4032 108.587 20.4032 108.59 20.4032C108.601 20.4032 108.612 20.4032 108.623 20.4032C108.628 20.4032 108.633 20.4032 108.638 20.4032C108.647 20.4032 108.656 20.4032 108.664 20.4047C108.669 20.4047 108.676 20.4047 108.682 20.4047C108.69 20.4047 108.698 20.4047 108.707 20.4047C108.712 20.4047 108.717 20.4047 108.722 20.4047C108.731 20.4047 108.741 20.4047 108.749 20.4063C108.755 20.4063 108.759 20.4063 108.764 20.4063C108.773 20.4063 108.783 20.4063 108.791 20.4063C108.797 20.4063 108.802 20.4063 108.807 20.4063C108.816 20.4063 108.824 20.4063 108.833 20.4078C108.838 20.4078 108.845 20.4078 108.849 20.4078C108.858 20.4078 108.868 20.4078 108.877 20.4078C108.88 20.4078 108.886 20.4078 108.89 20.4078C108.9 20.4078 108.91 20.4094 108.92 20.4094C108.926 20.4094 108.926 20.4094 108.931 20.4094C108.942 20.4094 108.952 20.4094 108.964 20.4094C108.967 20.4094 108.97 20.4094 108.973 20.4094C108.984 20.4109 108.996 20.4109 109.007 20.4109C109.008 20.4109 109.014 20.4109 109.015 20.4109C109.03 20.4109 109.039 20.4109 109.054 20.4125H109.056C109.069 20.4125 109.082 20.4125 109.095 20.4125C109.096 20.4125 109.098 20.4125 109.1 20.4125C109.186 20.4156 109.27 20.4171 109.356 20.4202C109.358 20.4202 109.358 20.4202 109.36 20.4202C109.373 20.4202 109.387 20.4202 109.399 20.4202C109.401 20.4202 109.401 20.4202 109.403 20.4202C109.417 20.4218 109.427 20.4218 109.441 20.4218C109.443 20.4218 109.445 20.4218 109.447 20.4218C109.458 20.4218 109.473 20.4233 109.484 20.4233C109.485 20.4233 109.488 20.4233 109.49 20.4233C109.501 20.4233 109.516 20.4233 109.527 20.4249C109.53 20.4249 109.529 20.4249 109.532 20.4249C109.546 20.4249 109.558 20.4249 109.572 20.4264C109.573 20.4264 109.571 20.4249 109.573 20.4264C109.587 20.4264 109.6 20.4264 109.614 20.4264H109.616C109.63 20.428 109.643 20.428 109.658 20.428C109.659 20.428 109.657 20.428 109.659 20.428C111.993 20.5009 114.3 20.6824 116.577 20.9678H116.579C116.593 20.9694 116.605 20.971 116.619 20.9725C116.634 20.9741 116.646 20.9756 116.66 20.9772L116.663 20.9787C116.69 20.9818 116.716 20.9849 116.745 20.988C116.759 20.9911 116.771 20.9911 116.785 20.9942C116.786 20.9942 116.786 20.9942 116.788 20.9942C116.802 20.9958 116.813 20.9973 116.826 20.9989C116.828 20.9989 116.828 20.9989 116.829 20.9989C116.914 21.0097 116.997 21.0206 117.08 21.0315C117.094 21.0346 117.108 21.0361 117.122 21.0377C117.135 21.0392 117.146 21.0408 117.16 21.0423C117.162 21.0423 117.168 21.0439 117.169 21.0439C117.182 21.0454 117.191 21.047 117.203 21.0485C117.206 21.0485 117.206 21.0485 117.211 21.0501C117.22 21.0501 117.231 21.0516 117.242 21.0532C117.246 21.0547 117.249 21.0547 117.254 21.0547C117.263 21.0563 117.272 21.0578 117.283 21.0594C117.286 21.0594 117.291 21.0609 117.294 21.0609C117.306 21.0625 117.314 21.064 117.323 21.064C117.326 21.0656 117.332 21.0656 117.335 21.0656C117.346 21.0671 117.355 21.0687 117.366 21.0702C117.369 21.0702 117.374 21.0718 117.377 21.0718C117.385 21.0733 117.395 21.0749 117.405 21.0764C117.409 21.0764 117.414 21.0764 117.418 21.078C117.428 21.0795 117.435 21.0796 117.445 21.0811C117.451 21.0827 117.454 21.0826 117.46 21.0826C117.469 21.0842 117.475 21.0857 117.485 21.0873C117.489 21.0873 117.495 21.0889 117.501 21.0889C117.509 21.0904 117.52 21.0919 117.528 21.0919C117.531 21.0935 117.538 21.0935 117.541 21.0951C117.552 21.0966 117.561 21.0966 117.572 21.0982C117.575 21.0997 117.578 21.0997 117.581 21.0997C117.594 21.1013 117.604 21.1028 117.615 21.1044C117.618 21.1044 117.623 21.1059 117.624 21.1059C117.638 21.1075 117.649 21.109 117.663 21.1121C117.666 21.1121 117.668 21.1121 117.671 21.1121C117.683 21.1137 117.692 21.1152 117.704 21.1168C117.708 21.1183 117.714 21.1183 117.718 21.1199C117.726 21.1199 117.735 21.1214 117.744 21.123C117.751 21.1245 117.758 21.1245 117.764 21.1261C117.772 21.1261 117.777 21.1276 117.783 21.1276C117.789 21.1292 117.798 21.1307 117.804 21.1307C117.812 21.1323 117.818 21.1338 117.824 21.1338C117.831 21.1354 117.837 21.1354 117.844 21.1369C117.851 21.1385 117.858 21.1385 117.864 21.14C117.871 21.1416 117.878 21.1416 117.883 21.1432C117.891 21.1432 117.898 21.1447 117.906 21.1462C117.912 21.1462 117.92 21.1478 117.926 21.1494C117.934 21.1494 117.937 21.1509 117.944 21.1509C117.95 21.1525 117.96 21.154 117.966 21.154C117.974 21.1556 117.978 21.1571 117.986 21.1571C117.992 21.1587 118 21.1602 118.007 21.1602C118.014 21.1618 118.02 21.1618 118.027 21.1633C118.034 21.1649 118.04 21.1649 118.046 21.1664C118.054 21.168 118.058 21.168 118.066 21.1695C118.072 21.1695 118.083 21.1711 118.089 21.1726C118.092 21.1726 118.097 21.1742 118.101 21.1742C118.11 21.1757 118.12 21.1773 118.129 21.1788C118.132 21.1788 118.135 21.1788 118.14 21.1804C118.149 21.1819 118.16 21.1835 118.169 21.185C118.17 21.185 118.172 21.185 118.173 21.185C118.235 21.1943 118.301 21.2037 118.363 21.213C118.364 21.213 118.364 21.213 118.366 21.213C118.392 21.2176 118.418 21.2207 118.444 21.2254C118.456 21.2269 118.469 21.2285 118.481 21.2316H118.484C118.495 21.2331 118.507 21.2347 118.519 21.2362C118.521 21.2362 118.523 21.2378 118.524 21.2378C118.536 21.2393 118.546 21.2409 118.559 21.2424C118.561 21.2424 118.559 21.2424 118.561 21.2424C118.575 21.2455 118.584 21.2471 118.598 21.2486C118.599 21.2486 118.599 21.2486 118.601 21.2486C118.613 21.2517 118.627 21.2533 118.638 21.2548C118.652 21.2564 118.664 21.2595 118.676 21.261H118.678C141.97 24.8601 161.704 39.3508 172.621 59.4153C159.948 41.5598 140.229 29.1448 117.568 26.2919C117.088 29.0548 112.564 31.222 107.051 31.222C101.636 31.222 97.1759 29.1308 96.5652 26.4377C83.2015 28.3195 70.8443 33.5675 60.3936 41.3085C60.4123 41.2728 60.4313 41.2387 60.4494 41.203V41.2046C60.3401 41.3054 60.2313 41.4078 60.1228 41.5102C52.3433 47.3229 45.6301 54.5256 40.3574 62.7522Z" fill="#FCD199"/>
<path d="M118.111 112.075C118.135 112.065 118.158 112.056 118.182 112.045C118.158 112.056 118.134 112.065 118.111 112.075ZM118.201 112.037C118.219 112.03 118.234 112.024 118.251 112.016C118.233 112.024 118.22 112.03 118.201 112.037ZM118.274 112.006C118.29 111.999 118.31 111.992 118.325 111.984C118.309 111.992 118.291 111.999 118.274 112.006ZM118.343 111.977C118.367 111.967 118.387 111.958 118.411 111.948C118.389 111.958 118.366 111.968 118.343 111.977ZM118.414 111.947C118.438 111.937 118.462 111.927 118.488 111.916C118.463 111.927 118.438 111.937 118.414 111.947ZM118.492 111.914C118.513 111.905 118.537 111.896 118.558 111.885C118.536 111.896 118.514 111.905 118.492 111.914ZM118.571 111.88C118.593 111.872 118.611 111.864 118.633 111.854C118.612 111.863 118.592 111.872 118.571 111.88ZM118.643 111.849C118.666 111.84 118.689 111.831 118.712 111.82C118.69 111.831 118.666 111.84 118.643 111.849ZM118.714 111.819C118.766 111.798 118.813 111.777 118.863 111.755C118.814 111.777 118.765 111.798 118.714 111.819ZM118.869 111.753C118.891 111.744 118.914 111.734 118.936 111.724C118.913 111.734 118.892 111.744 118.869 111.753ZM118.943 111.721C119.043 111.679 119.141 111.637 119.24 111.595C119.141 111.637 119.043 111.679 118.943 111.721ZM119.242 111.592C119.467 111.496 119.689 111.4 119.914 111.303C119.69 111.4 119.466 111.497 119.242 111.592ZM119.917 111.301C120.016 111.257 120.113 111.215 120.212 111.172C120.114 111.214 120.015 111.258 119.917 111.301ZM120.215 111.17C120.313 111.127 120.412 111.084 120.51 111.041C120.412 111.084 120.313 111.127 120.215 111.17ZM120.516 111.038C120.612 110.995 120.711 110.951 120.808 110.909C120.71 110.952 120.614 110.994 120.516 111.038ZM120.815 110.906C120.836 110.896 120.859 110.886 120.881 110.876C120.86 110.886 120.836 110.896 120.815 110.906ZM120.887 110.874C120.958 110.842 121.033 110.809 121.105 110.777C121.033 110.809 120.959 110.842 120.887 110.874ZM121.114 110.773C121.136 110.762 121.154 110.755 121.175 110.745C121.156 110.754 121.134 110.763 121.114 110.773ZM121.187 110.74C121.211 110.729 121.232 110.72 121.256 110.71C121.232 110.72 121.212 110.729 121.187 110.74ZM121.256 110.709C121.304 110.687 121.353 110.665 121.401 110.645C121.353 110.665 121.304 110.687 121.256 110.709ZM121.413 110.639C121.433 110.63 121.453 110.621 121.472 110.613C121.453 110.621 121.433 110.63 121.413 110.639ZM121.485 110.607C121.505 110.597 121.524 110.589 121.544 110.58C121.526 110.589 121.504 110.597 121.485 110.607ZM121.558 110.574C121.605 110.553 121.65 110.532 121.696 110.512C121.65 110.532 121.605 110.553 121.558 110.574ZM121.717 110.502C121.733 110.494 121.749 110.487 121.766 110.48C121.75 110.487 121.732 110.495 121.717 110.502ZM121.788 110.47C121.803 110.463 121.819 110.456 121.835 110.449C121.818 110.456 121.804 110.462 121.788 110.47ZM121.857 110.438C121.875 110.43 121.894 110.422 121.912 110.414C121.895 110.421 121.874 110.431 121.857 110.438ZM121.926 110.407C121.947 110.397 121.973 110.386 121.994 110.377C121.972 110.387 121.948 110.397 121.926 110.407ZM122.011 110.369C122.029 110.361 122.044 110.354 122.062 110.347C122.045 110.354 122.028 110.362 122.011 110.369ZM122.087 110.334C122.1 110.328 122.114 110.322 122.128 110.316C122.114 110.322 122.1 110.328 122.087 110.334ZM122.159 110.302C122.171 110.297 122.182 110.291 122.195 110.286C122.182 110.291 122.171 110.296 122.159 110.302ZM122.226 110.271C122.236 110.266 122.249 110.261 122.26 110.256C122.248 110.261 122.237 110.266 122.226 110.271ZM122.325 110.226C122.336 110.221 122.345 110.218 122.354 110.213C122.346 110.217 122.334 110.222 122.325 110.226ZM122.393 110.195C122.401 110.192 122.411 110.187 122.418 110.183C122.41 110.187 122.401 110.191 122.393 110.195ZM122.459 110.164C122.467 110.161 122.476 110.157 122.483 110.154C122.476 110.157 122.467 110.161 122.459 110.164ZM122.527 110.133C122.529 110.133 122.531 110.132 122.532 110.131C122.531 110.132 122.529 110.133 122.527 110.133ZM122.703 110.053C122.705 110.052 122.707 110.052 122.71 110.05C122.708 110.051 122.705 110.052 122.703 110.053ZM122.766 110.024L122.768 110.023L122.766 110.024Z" fill="#5B6D54"/>
<path d="M70.3876 122.608C64.6847 122.608 59.1312 122.089 53.7877 121.026C51.1509 120.369 48.5678 119.577 46.0499 118.637C41.4083 116.904 38.0839 112.75 37.3293 107.815C36.6904 103.634 36.3929 99.3412 36.4686 94.964C36.8328 73.8839 45.8956 54.9282 60.1234 41.5095C60.2138 41.4412 60.3035 41.3743 60.3941 41.3074C55.0011 51.4547 51.8489 62.988 51.6373 75.2386C51.6334 75.4691 51.6301 75.6996 51.6286 75.9301C51.5208 88.7826 60.5781 99.825 73.0967 102.221C78.2663 103.21 83.6271 103.693 89.1294 103.693C104.325 103.693 120.598 100.011 136.868 93.154C148.415 88.2859 158.908 82.2553 167.921 75.2371C157.336 89.4955 141.606 101.35 122.769 110.022L122.766 110.024C122.748 110.032 122.73 110.041 122.71 110.049C122.707 110.051 122.706 110.052 122.703 110.052C122.645 110.079 122.59 110.105 122.532 110.13C122.531 110.132 122.529 110.133 122.528 110.133C122.512 110.14 122.498 110.146 122.484 110.153C122.476 110.156 122.467 110.16 122.46 110.163C122.446 110.17 122.433 110.176 122.419 110.183C122.412 110.186 122.401 110.191 122.393 110.194C122.378 110.2 122.369 110.206 122.355 110.211C122.345 110.217 122.336 110.22 122.326 110.226C122.304 110.234 122.283 110.246 122.26 110.255C122.249 110.26 122.237 110.265 122.226 110.271C122.216 110.275 122.205 110.28 122.195 110.285C122.182 110.291 122.171 110.295 122.16 110.301C122.15 110.305 122.139 110.31 122.129 110.315C122.115 110.321 122.101 110.328 122.088 110.334C122.079 110.338 122.071 110.341 122.063 110.347C122.044 110.354 122.029 110.361 122.012 110.368C122.005 110.371 122 110.374 121.995 110.376C121.974 110.385 121.948 110.396 121.927 110.408C121.921 110.409 121.919 110.411 121.913 110.412C121.895 110.422 121.876 110.429 121.858 110.438C121.851 110.44 121.842 110.445 121.835 110.449C121.82 110.456 121.804 110.463 121.787 110.47C121.78 110.473 121.773 110.476 121.766 110.479C121.749 110.486 121.734 110.493 121.717 110.502C121.711 110.504 121.703 110.507 121.696 110.512C121.649 110.532 121.604 110.553 121.559 110.573C121.553 110.576 121.549 110.577 121.545 110.58C121.525 110.588 121.507 110.597 121.486 110.606C121.481 110.608 121.477 110.61 121.473 110.611C121.453 110.62 121.433 110.63 121.415 110.638C121.409 110.64 121.407 110.641 121.402 110.644C121.354 110.665 121.305 110.687 121.257 110.708H121.256C121.233 110.719 121.212 110.728 121.188 110.739C121.185 110.741 121.179 110.742 121.175 110.745C121.154 110.754 121.137 110.762 121.115 110.772C121.11 110.773 121.109 110.775 121.105 110.776C121.034 110.808 120.959 110.842 120.888 110.873C120.885 110.874 120.885 110.874 120.882 110.876C120.859 110.884 120.837 110.896 120.816 110.904C120.813 110.906 120.811 110.907 120.809 110.907C120.711 110.951 120.612 110.994 120.517 111.037C120.515 111.038 120.511 111.04 120.511 111.041C120.412 111.084 120.315 111.126 120.216 111.169C120.215 111.17 120.215 111.17 120.213 111.17C120.113 111.215 120.017 111.256 119.917 111.3C119.916 111.301 119.914 111.301 119.914 111.301C119.69 111.4 119.467 111.495 119.243 111.592L119.24 111.593C119.141 111.636 119.043 111.678 118.944 111.721C118.941 111.721 118.94 111.723 118.937 111.724C118.914 111.734 118.892 111.742 118.869 111.752C118.868 111.754 118.865 111.755 118.863 111.755C118.813 111.777 118.766 111.797 118.715 111.818C118.715 111.819 118.715 111.819 118.712 111.819C118.69 111.829 118.667 111.839 118.643 111.849C118.64 111.851 118.638 111.852 118.633 111.853C118.612 111.863 118.594 111.871 118.571 111.879C118.567 111.881 118.563 111.883 118.559 111.885C118.538 111.895 118.514 111.905 118.492 111.913C118.491 111.913 118.49 111.915 118.488 111.915C118.463 111.926 118.439 111.936 118.415 111.946C118.412 111.947 118.412 111.947 118.412 111.947C118.388 111.957 118.368 111.966 118.344 111.976C118.337 111.979 118.332 111.982 118.326 111.983C118.31 111.99 118.291 111.999 118.275 112.006C118.268 112.009 118.26 112.011 118.253 112.016C118.234 112.023 118.219 112.029 118.202 112.037C118.195 112.038 118.188 112.043 118.182 112.044C118.158 112.056 118.136 112.064 118.112 112.074C101.845 118.931 85.5801 122.608 70.3876 122.608Z" fill="#BF6700"/>
<path d="M60.123 41.5087C60.2316 41.4062 60.3402 41.3051 60.4496 41.204V41.2026C60.4314 41.2382 60.4126 41.2723 60.3937 41.3079C60.3033 41.3749 60.2135 41.4418 60.123 41.5087Z" fill="#D19982"/>
<path d="M70.7931 49.101C70.022 51.5468 68.69 53.3369 67.8417 53.0653C66.9936 52.7923 66.9306 50.5561 67.7016 48.1089C68.4719 45.6631 69.8048 43.8731 70.6531 44.1447C71.4478 44.4008 71.5627 46.3851 70.9151 48.6915L70.7931 49.101Z" fill="#FCE69F"/>
<path d="M83.381 50.6767C82.9459 53.2071 81.8663 55.1622 80.989 55.0085C80.1125 54.8549 79.7489 52.6471 80.184 50.1182C80.6199 47.5878 81.6995 45.6328 82.576 45.7864C83.3983 45.9302 83.7782 47.881 83.447 50.255L83.381 50.6767Z" fill="#FCE69F"/>
<path d="M99.6312 50.1686C99.9855 52.7114 99.5523 54.9064 98.6705 55.0307C97.7888 55.1564 96.7728 53.1666 96.4185 50.6238C96.0641 48.0824 96.4988 45.8873 97.3791 45.763C98.2055 45.6457 99.1605 47.3842 99.5661 49.7469L99.6312 50.1686Z" fill="#FCE69F"/>
<path d="M113.221 44.9114C114.567 47.0895 115.053 49.2733 114.298 49.7485C113.544 50.2236 111.813 48.8209 110.468 46.6428C109.12 44.4647 108.635 42.2809 109.389 41.8057C110.097 41.3605 111.669 42.5598 112.989 44.5529L113.221 44.9114Z" fill="#FCE69F"/>
<path d="M123.643 36.1929C125.449 38.0039 126.415 40.0179 125.787 40.6549C125.158 41.2905 123.159 40.3239 121.355 38.5129C119.551 36.7019 118.583 34.6879 119.211 34.0509C119.8 33.455 121.602 34.2598 123.34 35.8957L123.643 36.1929Z" fill="#FCE69F"/>
<path d="M72.4691 90.6176C71.622 90.6176 70.9375 89.926 70.9375 89.0725C70.9375 88.218 71.622 87.5263 72.4691 87.5263C73.3151 87.5263 74.0007 88.218 74.0007 89.0725C74.0007 89.926 73.3151 90.6176 72.4691 90.6176Z" fill="#BF6700"/>
<path d="M97.1805 75.9347C96.3346 75.9347 95.6484 75.2424 95.6484 74.3891C95.6484 73.5346 96.3346 72.8424 97.1805 72.8424C98.0263 72.8424 98.7125 73.5346 98.7125 74.3891C98.7125 75.2424 98.0263 75.9347 97.1805 75.9347Z" fill="#BF6700"/>
<path d="M102.243 92.0194C101.396 92.0194 100.711 91.3274 100.711 90.4747C100.711 89.6209 101.396 88.9289 102.243 88.9289C103.088 88.9289 103.775 89.6209 103.775 90.4747C103.775 91.3274 103.088 92.0194 102.243 92.0194Z" fill="#E99335"/>
<path d="M117.028 73.1C116.181 73.1 115.496 72.408 115.496 71.5538C115.496 70.7009 116.181 70.0089 117.028 70.0089C117.874 70.0089 118.56 70.7009 118.56 71.5538C118.56 72.408 117.874 73.1 117.028 73.1Z" fill="#E99335"/>
<path d="M132.845 85.7493C131.999 85.7493 131.312 85.0571 131.312 84.2047C131.312 83.3499 131.999 82.6589 132.845 82.6589C133.692 82.6589 134.378 83.3499 134.378 84.2047C134.378 85.0571 133.692 85.7493 132.845 85.7493Z" fill="#BF6700"/>
<path d="M134.893 62.3628C134.047 62.3628 133.361 61.671 133.361 60.8177C133.361 59.9631 134.047 59.2712 134.893 59.2712C135.74 59.2712 136.425 59.9631 136.425 60.8177C136.425 61.671 135.74 62.3628 134.893 62.3628Z" fill="#BF6700"/>
<path d="M145.907 49.118C145.062 49.118 144.375 48.4265 144.375 47.5734C144.375 46.7202 145.062 46.0274 145.907 46.0274C146.753 46.0274 147.44 46.7202 147.44 47.5734C147.44 48.4265 146.753 49.118 145.907 49.118Z" fill="#BF6700"/>
<path d="M72.7762 74.5659C71.9303 74.5659 71.2441 73.8739 71.2441 73.0197C71.2441 72.1668 71.9303 71.4748 72.7762 71.4748C73.6227 71.4748 74.3089 72.1668 74.3089 73.0197C74.3089 73.8739 73.6227 74.5659 72.7762 74.5659Z" fill="#E99335"/>
<path d="M160.934 63.6754C160.088 63.6754 159.402 62.9839 159.402 62.1306C159.402 61.2773 160.088 60.5845 160.934 60.5845C161.781 60.5845 162.466 61.2773 162.466 62.1306C162.466 62.9839 161.781 63.6754 160.934 63.6754Z" fill="#BF6700"/>
<path d="M150.999 80.5545C150.154 80.5545 149.467 79.8617 149.467 79.0084C149.467 78.1551 150.154 77.4635 150.999 77.4635C151.845 77.4635 152.531 78.1551 152.531 79.0084C152.531 79.8617 151.845 80.5545 150.999 80.5545Z" fill="#E99335"/>
<path d="M107.325 21.9994C67.7339 21.9994 35.1687 54.1356 34.4764 94.1877C34.4031 98.4364 34.6919 102.704 35.3356 106.871C35.9996 111.173 38.9047 114.781 42.9184 116.288C63.7515 124.106 90.2375 122.082 117.498 110.59C140.645 100.833 158.618 86.8735 169.471 70.2193C171.951 66.4176 172.057 61.4607 169.744 57.5933C156.669 35.7212 133.779 22.4184 108.515 22.0088C108.118 22.0026 107.72 21.9994 107.325 21.9994ZM70.3517 124.223C60.1007 124.223 50.5295 122.576 41.8065 119.302C36.7133 117.391 33.0266 112.816 32.1852 107.365C31.514 103.018 31.2124 98.5646 31.289 94.1314C31.6413 73.7458 39.8953 54.6624 54.5305 40.3982C69.1619 26.1388 88.3522 18.4541 108.566 18.7933C121.666 19.0059 134.534 22.6419 145.78 29.3074C156.7 35.7805 165.931 44.9878 172.474 55.9317C175.417 60.8542 175.284 67.1554 172.136 71.9857C160.932 89.1777 142.463 103.553 118.727 113.557C104.977 119.354 91.4595 122.828 78.5504 123.882C75.7729 124.109 73.0387 124.223 70.3517 124.223Z" fill="#6D184E"/>
<path d="M153.084 171.639C152.167 176.636 147.406 179.935 142.451 179.009C137.499 178.082 134.227 173.279 135.147 168.282C135.686 165.346 136.853 166.012 138.756 166.679C140.092 167.148 141.789 167.615 143.886 166.838C149.875 164.619 154.003 166.642 153.084 171.639Z" fill="#FCAF15"/>
<path d="M142.435 179.006H142.434H142.435ZM148.537 172.651C148.76 172.091 148.931 171.5 149.045 170.883C149.47 168.577 148.808 166.914 147.394 165.999C147.707 165.969 148.009 165.955 148.301 165.955C151.727 165.955 153.731 167.985 153.093 171.583C153.297 170.434 153.223 169.45 152.927 168.633C151.889 170.243 150.33 171.724 148.537 172.651ZM153.087 171.621C153.087 171.619 153.088 171.617 153.088 171.614C153.088 171.617 153.087 171.618 153.087 171.621ZM153.091 171.603C153.091 171.597 153.092 171.591 153.093 171.585C153.092 171.591 153.091 171.597 153.091 171.603Z" fill="#FED78A"/>
<path d="M142.451 179.009C142.446 179.008 142.442 179.007 142.436 179.006C142.44 179.007 142.446 179.008 142.451 179.009ZM152.502 173.586C152.762 172.973 152.959 172.322 153.084 171.639C153.086 171.634 153.087 171.627 153.088 171.621C153.087 171.627 153.086 171.633 153.084 171.639C152.959 172.322 152.762 172.973 152.502 173.586Z" fill="#D18126"/>
<path d="M135.148 168.282C135.148 168.279 135.148 168.276 135.15 168.273C135.148 168.276 135.148 168.279 135.148 168.282Z" fill="#6D184E"/>
<path d="M142.436 179.006C137.491 178.072 134.229 173.274 135.147 168.282C135.147 168.28 135.148 168.277 135.148 168.274C135.43 166.754 135.879 166.206 136.514 166.121C137.431 169.378 139.936 172.865 143.46 173.525C143.881 173.604 144.3 173.641 144.72 173.641C146.04 173.641 147.342 173.269 148.538 172.651C147.204 175.991 144.031 178.238 140.477 178.392C141.093 178.663 141.746 178.875 142.436 179.006ZM153.089 171.614C153.09 171.611 153.091 171.607 153.091 171.603C153.091 171.607 153.09 171.611 153.089 171.614ZM153.095 171.585C153.095 171.585 153.095 171.584 153.095 171.583C153.095 171.584 153.095 171.585 153.095 171.585Z" fill="#D18126"/>
<path d="M144.184 179.165C147.807 179.141 151.085 176.932 152.502 173.586C151.085 176.933 147.807 179.142 144.184 179.165Z" fill="#D3B392"/>
<path d="M144.126 179.165C143.574 179.165 143.013 179.114 142.452 179.009C142.446 179.008 142.441 179.007 142.436 179.006H142.435C141.747 178.875 141.093 178.663 140.477 178.392C144.032 178.238 147.203 175.991 148.539 172.651C150.331 171.724 151.89 170.243 152.928 168.633C153.223 169.45 153.298 170.434 153.095 171.583C153.095 171.584 153.095 171.585 153.095 171.585C153.093 171.591 153.093 171.597 153.092 171.603C153.09 171.607 153.09 171.611 153.089 171.614C153.089 171.617 153.088 171.619 153.088 171.621C153.087 171.627 153.086 171.633 153.084 171.639C152.96 172.322 152.761 172.973 152.503 173.586C151.085 176.932 147.807 179.141 144.184 179.165C144.163 179.165 144.145 179.165 144.126 179.165Z" fill="#D29D78"/>
<path d="M136.926 167.754C136.868 167.906 136.79 168.163 136.714 168.576C136.348 170.571 136.773 172.589 137.911 174.262C139.05 175.933 140.766 177.057 142.743 177.428C144.721 177.797 146.721 177.369 148.379 176.22C150.037 175.072 151.15 173.34 151.518 171.346C151.697 170.368 151.723 169.043 150.826 168.278C149.666 167.291 147.218 167.318 144.436 168.348C141.579 169.407 139.315 168.59 137.816 168.05C137.532 167.947 137.172 167.817 136.926 167.754ZM144.139 180.775C143.483 180.775 142.821 180.714 142.16 180.59C139.348 180.063 136.905 178.463 135.284 176.083C133.662 173.703 133.057 170.829 133.579 167.989C133.783 166.883 134.164 165.528 135.318 164.858C136.513 164.163 137.775 164.62 138.89 165.022C140.205 165.495 141.565 165.986 143.337 165.33C147.309 163.858 150.787 164.037 152.882 165.821C154.496 167.195 155.124 169.366 154.652 171.933C154.13 174.772 152.543 177.236 150.185 178.871C148.378 180.123 146.284 180.775 144.139 180.775Z" fill="#6D184E"/>
<path d="M164.947 108.257C165.591 108.555 166.344 108.479 166.954 108.118C169.476 106.623 177.532 101.683 178.889 98.7696C180.401 95.5203 160.394 106.147 164.947 108.257Z" fill="#E5525F"/>
<path d="M113.502 222.457C73.1947 222.457 40.5195 218.608 40.5195 213.86C40.5195 209.113 73.1947 205.264 113.502 205.264C153.807 205.264 186.483 209.113 186.483 213.86C186.483 218.608 153.807 222.457 113.502 222.457Z" fill="#F2A40C"/>
</svg>
